<?xml version="1.0" encoding="UTF-8" standalone="no"?>
<!DOCTYPE svg PUBLIC "-//W3C//DTD SVG 1.1//EN"
 "http://www.w3.org/Graphics/SVG/1.1/DTD/svg11.dtd">
<!-- Generated by graphviz version 2.38.0 (20140413.2041)
 -->
<!-- Title: models_diagram Pages: 1 -->
<svg width="800pt" height="230pt"
 viewBox="0.00 0.00 800.50 230.00" xmlns="http://www.w3.org/2000/svg" xmlns:xlink="http://www.w3.org/1999/xlink">
<g id="graph0" class="graph" transform="scale(1 1) rotate(0) translate(4 226)">
<title>models_diagram</title>
<polygon fill="none" stroke="none" points="-4,4 -4,-226 796.496,-226 796.496,4 -4,4"/>
<!-- _diagram_info -->
<g id="node1" class="node"><title>_diagram_info</title>
<text text-anchor="start" x="8" y="-207.6" font-family="Times,serif" font-size="13.00">Models diagram</text>
<text text-anchor="start" x="8" y="-193.6" font-family="Times,serif" font-size="13.00">Date: Nov 07 2016 &#45; 12:16</text>
<text text-anchor="start" x="8" y="-179.6" font-family="Times,serif" font-size="13.00">Migration version: 20160917082613</text>
<text text-anchor="start" x="8" y="-165.6" font-family="Times,serif" font-size="13.00">Generated by RailRoady 1.5.2</text>
<text text-anchor="start" x="8" y="-151.6" font-family="Times,serif" font-size="13.00">http://railroady.prestonlee.com</text>
</g>
<!-- Assignment -->
<g id="node2" class="node"><title>Assignment</title>
<ellipse fill="none" stroke="black" cx="285" cy="-183" rx="53.0913" ry="18"/>
<text text-anchor="middle" x="285" y="-179.3" font-family="Times,serif" font-size="14.00">Assignment</text>
</g>
<!-- ApplicationRecord -->
<g id="node3" class="node"><title>ApplicationRecord</title>
<ellipse fill="none" stroke="black" cx="434" cy="-183" rx="77.1866" ry="18"/>
<text text-anchor="middle" x="434" y="-179.3" font-family="Times,serif" font-size="14.00">ApplicationRecord</text>
</g>
<!-- Project -->
<g id="node4" class="node"><title>Project</title>
<ellipse fill="none" stroke="black" cx="565" cy="-183" rx="35.9954" ry="18"/>
<text text-anchor="middle" x="565" y="-179.3" font-family="Times,serif" font-size="14.00">Project</text>
</g>
<!-- Bid -->
<g id="node8" class="node"><title>Bid</title>
<ellipse fill="none" stroke="black" cx="509" cy="-18" rx="27" ry="18"/>
<text text-anchor="middle" x="509" y="-14.3" font-family="Times,serif" font-size="14.00">Bid</text>
</g>
<!-- Project&#45;&gt;Bid -->
<g id="edge2" class="edge"><title>Project&#45;&gt;Bid</title>
<path fill="none" stroke="#f8f8dc" d="M556.492,-157.236C546.154,-127.145 528.781,-76.5773 518.158,-45.6573"/>
<ellipse fill="none" stroke="#f8f8dc" cx="557.918" cy="-161.387" rx="4.00001" ry="4.00001"/>
<polygon fill="#f8f8dc" stroke="#f8f8dc" points="518.084,-45.44 519.09,-34.5204 516.459,-40.7113 514.835,-35.9826 514.835,-35.9826 514.835,-35.9826 516.459,-40.7113 510.579,-37.4447 518.084,-45.44 518.084,-45.44"/>
</g>
<!-- User -->
<g id="node9" class="node"><title>User</title>
<ellipse fill="none" stroke="black" cx="598" cy="-90" rx="27.0966" ry="18"/>
<text text-anchor="middle" x="598" y="-86.3" font-family="Times,serif" font-size="14.00">User</text>
</g>
<!-- Project&#45;&gt;User -->
<g id="edge1" class="edge"><title>Project&#45;&gt;User</title>
<path fill="none" stroke="#716528" d="M574.66,-155.363C579.023,-143.33 584.162,-129.16 588.505,-117.182"/>
<polygon fill="#716528" stroke="#716528" points="574.616,-155.483 566.977,-163.349 572.912,-160.183 571.207,-164.884 571.207,-164.884 571.207,-164.884 572.912,-160.183 575.437,-166.418 574.616,-155.483 574.616,-155.483"/>
<polygon fill="#716528" stroke="#716528" points="588.523,-117.133 596.163,-109.266 590.228,-112.433 591.932,-107.732 591.932,-107.732 591.932,-107.732 590.228,-112.433 587.702,-106.198 588.523,-117.133 588.523,-117.133"/>
</g>
<!-- Contribution -->
<g id="node5" class="node"><title>Contribution</title>
<ellipse fill="none" stroke="black" cx="610" cy="-18" rx="55.7903" ry="18"/>
<text text-anchor="middle" x="610" y="-14.3" font-family="Times,serif" font-size="14.00">Contribution</text>
</g>
<!-- Intake -->
<g id="node6" class="node"><title>Intake</title>
<ellipse fill="none" stroke="black" cx="651" cy="-183" rx="32.4942" ry="18"/>
<text text-anchor="middle" x="651" y="-179.3" font-family="Times,serif" font-size="14.00">Intake</text>
</g>
<!-- Comment -->
<g id="node7" class="node"><title>Comment</title>
<ellipse fill="none" stroke="black" cx="730" cy="-18" rx="46.2923" ry="18"/>
<text text-anchor="middle" x="730" y="-14.3" font-family="Times,serif" font-size="14.00">Comment</text>
</g>
<!-- User&#45;&gt;Contribution -->
<g id="edge4" class="edge"><title>User&#45;&gt;Contribution</title>
<path fill="none" stroke="#5b1b62" d="M602.288,-63.9868C603.272,-58.2493 604.322,-52.1211 605.321,-46.2929"/>
<ellipse fill="none" stroke="#5b1b62" cx="601.581" cy="-68.1125" rx="4.00001" ry="4.00001"/>
<polygon fill="#5b1b62" stroke="#5b1b62" points="605.349,-46.1315 611.474,-37.0357 606.194,-41.2034 607.039,-36.2753 607.039,-36.2753 607.039,-36.2753 606.194,-41.2034 602.603,-35.5149 605.349,-46.1315 605.349,-46.1315"/>
</g>
<!-- User&#45;&gt;Comment -->
<g id="edge3" class="edge"><title>User&#45;&gt;Comment</title>
<path fill="none" stroke="#d8d8e8" d="M625.718,-74.301C645.793,-63.6554 673.089,-49.18 694.719,-37.7094"/>
<ellipse fill="none" stroke="#d8d8e8" cx="622.159" cy="-76.1885" rx="4.00002" ry="4.00002"/>
<polygon fill="#d8d8e8" stroke="#d8d8e8" points="694.77,-37.6824 705.713,-36.9729 699.188,-35.3398 703.605,-32.9973 703.605,-32.9973 703.605,-32.9973 699.188,-35.3398 701.497,-29.0217 694.77,-37.6824 694.77,-37.6824"/>
</g>
<!-- User&#45;&gt;Bid -->
<g id="edge5" class="edge"><title>User&#45;&gt;Bid</title>
<path fill="none" stroke="#191015" d="M574.156,-70.246C561.635,-60.3979 546.309,-48.3445 533.668,-38.4022"/>
<ellipse fill="none" stroke="#191015" cx="577.696" cy="-73.0304" rx="4.00002" ry="4.00002"/>
<polygon fill="#191015" stroke="#191015" points="533.666,-38.4 528.588,-28.6808 529.736,-35.309 525.806,-32.2179 525.806,-32.2179 525.806,-32.2179 529.736,-35.309 523.024,-35.7549 533.666,-38.4 533.666,-38.4"/>
</g>
<!-- Applicant -->
<g id="node10" class="node"><title>Applicant</title>
<ellipse fill="none" stroke="black" cx="747" cy="-183" rx="45.4919" ry="18"/>
<text text-anchor="middle" x="747" y="-179.3" font-family="Times,serif" font-size="14.00">Applicant</text>
</g>
</g>
</svg>
